<svg id="Layer_1" data-name="Layer 1" xmlns="http://www.w3.org/2000/svg" viewBox="0 0 4614.24 1116"><defs><style>.cls-1{fill:#c2c2c2;}</style></defs><path class="cls-1" d="M478.33,647.33c-21-5.84-40.89-11.33-60.72-16.89-6.48-1.81-13.12-3.29-19.33-5.81-15.66-6.37-18.62-21.23-6.92-33.37,2.81-2.91,6-5.42,8.79-8.37,9.67-10.35,10.4-23.63,2-34.34-7.23-9.25-22.4-12.79-33.07-7.7-11.44,5.46-17.35,19.24-13.57,31.94.77,2.58,2.1,5,2.9,7.55,5.44,17.63-6.5,31.43-24.42,27.22-23.16-5.44-46-12-69.05-18-4.67-1.22-9.44-2-13.74-3-67.85,103.21-39.17,281.39,116.7,353.59-5.89.48-9.44,1-13,1-74.66.05-149.34-.59-224,.44-20.77.29-46.49-18.26-49.4-46.26a129,129,0,0,1-.25-13.49q0-323.83.1-647.69a92,92,0,0,1,2.49-22.59c6-23.65,31-38.48,50.06-38.05,28.77.65,57.57.13,86.36.13H455.48c7.61,17.54,13,35.11,14.54,53.43,4.46,55.1-5.91,107.28-32.45,156.08-15.66,28.79-35.67,53.48-62.27,73.24-23.05,17.12-45.24,35.54-66.66,54.69-20.47,18.31-37.17,40.08-51.61,64.77,3.3,1.35,6,2.78,8.82,3.56,21.64,5.93,43.29,11.85,65,17.5,7.53,2,15.34,3.31,18.89-4.41-1.53-11.72-3.95-21.86-3.94-32,0-17.23,13.84-30.26,31.12-30.32,6.18,0,12.87,0,18.47,2.2,23.59,9.24,29.66,38,12.4,56.83-3,3.3-6.8,5.91-9.81,9.22-5.54,6.08-4.43,12.78,2.67,16.76a33.11,33.11,0,0,0,7.53,2.88q31.15,8.59,62.36,17c2.55.68,5.32.54,9.39.9,2-5.72,4.3-11.42,5.94-17.31,4.32-15.57,8.29-31.23,12.53-46.82A99.06,99.06,0,0,1,503,557.75c7.19-16.39,23.91-19.12,35.57-5.55,4.75,5.54,9.24,10.67,16.33,13.46,14.4,5.67,29.93-5.24,33.49-18.81,4-15.17-5.38-30.59-20.34-32.25a45.61,45.61,0,0,0-19.63,2.66c-8.5,3-16.22,3.09-22.61-3.13-6.12-6-7.89-13.6-5.49-22.3Q535.7,436,550.67,380.09c7.59-28.17,14.58-56.52,22.83-84.49,2.77-9.4.79-16.23-4.46-23.67-19.7-27.91-38.28-54.84-87.81-97.47,5.63-.33,9.69-.79,13.75-.79,102.56,0,205.11.48,307.65-.38,27.1-.22,56.22,16.61,58.4,55.72.17,3.14.06,6.29.06,9.44q0,320.47.07,641c0,19.74-4.38,37.44-20,50.85-8.07,6.93-17,11.06-28.13,11q-119.43-.28-238.84-.12a19.26,19.26,0,0,1-7.17-1.25c43.53-21.76,80.5-50.76,107.39-91.71,27.1-41.28,41.1-86.29,41.41-136.83-11.65-3.37-22.7-6.68-33.8-9.75-13.41-3.71-26.83-7.43-40.34-10.73-6.88-1.68-14.8-4.46-20.58,1-5.94,5.64-1.56,12.86.85,18.89,6.78,17-3.14,36.71-17.23,43.68-14.8,7.32-36.51,2.33-46.55-10.75-10.75-14-9.38-33.3,3.44-46.82,3.09-3.26,6.7-6,9.67-9.39,5.45-6.14,4.58-11.15-2.45-15.32a20.76,20.76,0,0,0-5-2c-24.61-6.78-49.24-13.53-75-20.59-1.78,4.88-3.55,8.84-4.69,13-4.75,17.31-9.19,34.71-14,52-1.68,6-3.33,12.27-6.29,17.71-7.26,13.3-20.35,15-31.42,4.65-3.6-3.38-6.56-7.47-10.31-10.65-9.67-8.18-21.92-8.8-31.09-2-10.39,7.71-14.36,21.91-9.38,33.61a25.75,25.75,0,0,0,28.74,14.92c4.37-.87,8.47-3,12.81-4.11,15.25-3.9,25.93,4.53,25.55,20.26a51.88,51.88,0,0,1-1.94,11.9Q430,864,412.89,927.08c-.93,3.46-1.6,7.21-3.48,10.13-1.33,2.06-4.49,2.95-8.73,5.5.32-5,.08-7.57.7-9.92Q418.6,868.38,436,804a108.06,108.06,0,0,0,2.79-13.16c1.43-10.33-2.82-14.44-12.76-12.41-3.94.81-7.77,2.19-11.67,3.24-16.3,4.37-33.5-3.21-40.85-18-7.84-15.75-2.69-36.33,11.8-47.13,12.62-9.41,32.4-7.86,44.64,3.65,3.27,3.08,5.95,6.8,9.34,9.72,6.38,5.5,12.52,4.32,16.5-3.11a48.92,48.92,0,0,0,3.8-10C465.72,694.32,471.74,671.79,478.33,647.33Z"/><path class="cls-1" d="M1230.56,189.5q41.89,0,73.07,14t48.19,40.94q17,26.94,17,64.11a87.4,87.4,0,0,1-7.1,34.18,98.69,98.69,0,0,1-19.06,29.61q-12,12.75-25.81,18.42a118.32,118.32,0,0,1,38.1,22,113.45,113.45,0,0,1,27.57,34.81,92.36,92.36,0,0,1,10.24,42.69q0,43.47-20.48,72.13a119.82,119.82,0,0,1-53.23,42.06q-32.77,13.38-70.56,13.38H1039.67V189.5Zm25.66,159.86q12.12-12.45,12.13-31.66,0-18.58-12-30.71t-30.55-12.13h-85V361.8h84.74Q1244.09,361.8,1256.22,349.36ZM1276.39,519q14.33-13.55,14.33-36.55a44.09,44.09,0,0,0-6.62-23.62,47.21,47.21,0,0,0-18.43-17,55,55,0,0,0-26.3-6.3h-98.59v97h98.59Q1262.05,532.52,1276.39,519Z"/><path class="cls-1" d="M1537.32,606.24q-43-21.42-67.57-61.11t-24.57-92.62v-263h99.54V445.27q0,26.48,10.4,47.25a78.15,78.15,0,0,0,30.39,32.76q20,12,48,12,27.4,0,47.41-12a78.21,78.21,0,0,0,30.39-32.76q10.39-20.77,10.4-47.25V189.5h99.85v263q0,50.72-23.31,90.56t-66,62.22q-42.69,22.35-98.75,22.36Q1580.32,627.65,1537.32,606.24Z"/><path class="cls-1" d="M1990.57,278.33h-120V189.5H2209.5v88.83H2089.8V617.89h-99.23Z"/><path class="cls-1" d="M2516.08,617.89l-27.73-69.62H2309.76L2282,617.89H2176.51l175.76-428.71h93.56L2621.6,617.89ZM2342.51,465.43H2455.6l-53.24-133.87-2.83-13.23h-1l-2.83,13.23Z"/><path class="cls-1" d="M2908.41,597.41a227.79,227.79,0,0,1-83-81.74q-30.7-51.49-30.71-112.61,0-61.43,30.87-112.76t83.63-81.43q52.76-30.08,115.14-30.08,46.29,0,92.29,18.9a218.54,218.54,0,0,1,79,55,164.61,164.61,0,0,1,41.59,84.25H3135.84q-15.75-31.8-45.36-49.29t-69-17.48q-35,0-63.95,16.22t-46,46.46q-17,30.23-17,70.55,0,41.28,17,71.36t45.83,45.83q28.83,15.75,64.11,15.75,43.15,0,72.44-19.53t38.43-54.5H3017.72v-79.7h225.53q.63,75-25.36,130.26t-76.07,85q-50.09,29.77-119.69,29.77Q2960.71,627.65,2908.41,597.41Z"/><path class="cls-1" d="M3491.61,189.5q44.71,0,80,18.27t55,51q19.68,32.76,19.68,75,0,43.16-21.89,76.07t-59.37,49l91.34,159.08H3542l-75-143.32h-63.62V617.89h-99.86V189.5Zm25.83,194.19a54.64,54.64,0,0,0,21.26-20.47,56.86,56.86,0,0,0,7.72-29.45,51.53,51.53,0,0,0-7.88-27.56,57.72,57.72,0,0,0-21.42-20.32,59.74,59.74,0,0,0-29.61-7.56h-84.09V391.09h84.09A61.36,61.36,0,0,0,3517.44,383.69Z"/><path class="cls-1" d="M3793.64,606.24q-43-21.42-67.56-61.11t-24.57-92.62v-263h99.54V445.27q0,26.48,10.4,47.25a78.15,78.15,0,0,0,30.39,32.76q20,12,48,12,27.4,0,47.41-12a78.21,78.21,0,0,0,30.39-32.76q10.4-20.77,10.4-47.25V189.5h99.85v263q0,50.72-23.31,90.56t-66,62.22q-42.69,22.35-98.75,22.36Q3836.64,627.65,3793.64,606.24Z"/><path class="cls-1" d="M4344.55,189.5q44.4,0,79.53,19.06a139.61,139.61,0,0,1,55,52.92q19.83,33.86,19.84,76.37,0,45.36-19.53,80A136.38,136.38,0,0,1,4425,471.57q-34.8,19.06-79.21,19.06h-86.94V617.89H4159V189.5Zm25.35,204.12a60.85,60.85,0,0,0,21.26-23.32,68,68,0,0,0,7.88-32.45,57.27,57.27,0,0,0-7.88-28.65,62.44,62.44,0,0,0-21.42-22.36,54,54,0,0,0-29.28-8.51h-81.59V402.12h81.59A53.79,53.79,0,0,0,4369.9,393.62Z"/><path class="cls-1" d="M1039.67,887V707.77h35.7l42.41,126.88q5.87,17.73,8.56,26.53,3-9.78,9.53-28.73l42.91-124.68h31.9V887h-22.86V737l-52.07,150h-21.39l-51.83-152.55V887Z"/><path class="cls-1" d="M1249.43,887V707.77H1379v21.15H1273.14V783.8h99.14v21h-99.14v61h110V887Z"/><path class="cls-1" d="M1415.92,887V707.77h61.73q20.89,0,31.9,2.57a60.66,60.66,0,0,1,26.28,12.83A73,73,0,0,1,1557,753.8q7,18.63,7,42.59,0,20.42-4.77,36.19t-12.22,26.09a64.8,64.8,0,0,1-16.32,16.26,66.66,66.66,0,0,1-21.39,9,122.55,122.55,0,0,1-28.79,3.05Zm23.71-21.15h38.26q17.73,0,27.81-3.3t16.07-9.29q8.45-8.43,13.14-22.67t4.71-34.53q0-28.11-9.23-43.21T1508,732.59q-9.53-3.68-30.68-3.67h-37.65Z"/><path class="cls-1" d="M1647.19,887V811.06l-69.06-103.29H1607l35.33,54q9.78,15.16,18.21,30.32,8.07-14.05,19.56-31.66l34.72-52.69h27.62L1670.9,811.06V887Z"/><path class="cls-1" d="M1725.42,887l68.82-179.2h25.55L1893.13,887h-27l-20.91-54.27h-74.93L1750.6,887Zm51.71-73.58h60.75l-18.7-49.63q-8.57-22.62-12.72-37.16a228.61,228.61,0,0,1-9.65,34.22Z"/><path class="cls-1" d="M2090,887V707.77h67.23q20.53,0,33,5.44A42.34,42.34,0,0,1,2209.62,730a44.11,44.11,0,0,1,7,23.65,40.71,40.71,0,0,1-6.23,21.64q-6.24,10.14-18.83,16.38,16.26,4.77,25,16.25t8.74,27.14a52.26,52.26,0,0,1-5.32,23.41q-5.31,10.82-13.14,16.68T2187.25,884q-11.79,3-28.91,3Zm23.72-103.9h38.75q15.76,0,22.61-2.08,9-2.68,13.63-8.92t4.58-15.65a28.88,28.88,0,0,0-4.27-15.71,21.74,21.74,0,0,0-12.23-9.29q-8-2.49-27.26-2.5h-35.81Zm0,82.75h44.61q11.49,0,16.14-.85a38.76,38.76,0,0,0,13.69-4.89,26,26,0,0,0,9-10,31.22,31.22,0,0,0,3.54-15.1,29.8,29.8,0,0,0-5.13-17.42,27.12,27.12,0,0,0-14.25-10.39q-9.11-3-26.21-3h-41.44Z"/><path class="cls-1" d="M2260.29,696.77V669.39h27.26v27.38ZM2262,887V707.77h23.71V887Z"/><path class="cls-1" d="M2326.54,887V707.77h23.72V865.82h88.25V887Z"/><path class="cls-1" d="M2469.07,696.77V669.39h27.26v27.38Zm1.71,190.2V707.77h23.72V887Z"/><path class="cls-1" d="M2528.23,829.4l22.37-2q1.59,13.45,7.4,22.06t18,13.94a68.13,68.13,0,0,0,27.5,5.32,65.89,65.89,0,0,0,24-4q10.38-4,15.46-11.06a25.66,25.66,0,0,0,5.07-15.34,23.38,23.38,0,0,0-4.88-14.73q-4.91-6.3-16.14-10.57-7.22-2.82-31.9-8.74t-34.6-11.19q-12.83-6.72-19.13-16.68a41,41,0,0,1-6.29-22.31,45.52,45.52,0,0,1,7.7-25.37q7.69-11.79,22.49-17.9a85.22,85.22,0,0,1,32.88-6.11q19.92,0,35.14,6.41T2656.7,730a54.16,54.16,0,0,1,8.8,28.24L2642.77,760q-1.83-17-12.41-25.67t-31.23-8.68q-21.51,0-31.35,7.88t-9.84,19a20.37,20.37,0,0,0,7,15.89q6.85,6.24,35.76,12.78t39.66,11.42q15.64,7.21,23.11,18.28a44.51,44.51,0,0,1,7.45,25.49,48.76,48.76,0,0,1-8.19,27Q2654.5,876,2639.16,883t-34.53,7q-24.33,0-40.77-7.09a57.17,57.17,0,0,1-25.79-21.33A60.57,60.57,0,0,1,2528.23,829.4Zm56.6,75.17,6.35-21.63h16.38l-4,13.08q10.39,1.22,15.65,6.42t5.25,11.55q0,9.16-8.8,16.19t-26.52,7a93.4,93.4,0,0,1-17.61-1.47l1.35-14.3q7.82.49,11.49.49,11.49,0,16.13-3.18c2.37-1.63,3.55-3.62,3.55-6a6,6,0,0,0-1.41-3.91c-.93-1.14-2.67-2.12-5.19-2.93S2590.7,904.65,2584.83,904.57Z"/><path class="cls-1" d="M2705.6,696.77V669.39h27.26v27.38Zm1.71,190.2V707.77H2731V887Z"/><path class="cls-1" d="M2772.1,887V707.77h35.69l42.41,126.88q5.88,17.73,8.56,26.53,3.06-9.78,9.54-28.73l42.9-124.68h31.9V887h-22.85V737l-52.08,150h-21.39L2795,734.42V887Z"/><path class="cls-1" d="M3193.4,887V728.92h-59V707.77h142v21.15h-59.28V887Z"/><path class="cls-1" d="M3301.22,887V707.77h129.57v21.15H3324.93V783.8h99.13v21h-99.13v61h110V887Z"/><path class="cls-1" d="M3466.72,887V707.77h23.72v88.87l89-88.87h32.15l-75.18,72.61L3614.88,887h-31.3l-63.8-90.7-29.34,28.61V887Z"/><path class="cls-1" d="M3634.43,887V707.77h24.33l94.12,140.7V707.77h22.74V887h-24.33l-94.12-140.82V887Z"/><path class="cls-1" d="M3808.25,799.69q0-44.61,24-69.85t61.85-25.25q24.83,0,44.74,11.86a77.51,77.51,0,0,1,30.38,33.07q10.46,21.19,10.45,48.1,0,27.25-11,48.77T3937.46,879A89.12,89.12,0,0,1,3893.94,890q-25.3,0-45.23-12.23a78.64,78.64,0,0,1-30.19-33.37A101.18,101.18,0,0,1,3808.25,799.69Zm24.45.37q0,32.4,17.42,51t43.7,18.64q26.78,0,44.07-18.83t17.29-53.42q0-21.87-7.39-38.2a56.83,56.83,0,0,0-21.64-25.3,58.64,58.64,0,0,0-32-9,60.63,60.63,0,0,0-43.34,17.3Q3832.7,759.61,3832.7,800.06Z"/><path class="cls-1" d="M4009.21,887V707.77h23.72V865.82h88.25V887Z"/><path class="cls-1" d="M4142.21,799.69q0-44.61,23.95-69.85T4228,704.59q24.81,0,44.73,11.86a77.45,77.45,0,0,1,30.38,33.07q10.46,21.19,10.45,48.1,0,27.25-11,48.77T4271.41,879A89.12,89.12,0,0,1,4227.89,890q-25.3,0-45.22-12.23a78.6,78.6,0,0,1-30.2-33.37A101.17,101.17,0,0,1,4142.21,799.69Zm24.44.37q0,32.4,17.42,51t43.7,18.64q26.77,0,44.07-18.83t17.29-53.42q0-21.87-7.39-38.2A56.83,56.83,0,0,0,4260.1,734a58.64,58.64,0,0,0-32-9,60.63,60.63,0,0,0-43.34,17.3Q4166.65,759.61,4166.65,800.06Z"/><path class="cls-1" d="M4332,836.12l21.39-2.93q.85,20.53,7.7,28.11t18.95,7.58a28.21,28.21,0,0,0,15.4-4.09,21,21,0,0,0,8.92-11.13q2.44-7,2.45-22.43V707.77h23.71V829.89q0,22.49-5.44,34.83a38.69,38.69,0,0,1-17.23,18.83q-11.8,6.48-27.69,6.48-23.59,0-36.12-13.57T4332,836.12Z"/><path class="cls-1" d="M4471.63,696.77V669.39h27.26v27.38Zm1.72,190.2V707.77h23.71V887Z"/><circle class="cls-1" cx="3048.82" cy="803.84" r="25.03"/><circle class="cls-1" cx="1972.35" cy="803.84" r="25.03"/></svg>